<?xml version="1.0" encoding="UTF-8" standalone="no"?>
<!DOCTYPE svg PUBLIC "-//W3C//DTD SVG 1.1//EN" "http://www.w3.org/Graphics/SVG/1.1/DTD/svg11.dtd">
<svg width="100%" height="100%" viewBox="0 0 534 575" version="1.1" xmlns="http://www.w3.org/2000/svg" xmlns:xlink="http://www.w3.org/1999/xlink" xml:space="preserve" xmlns:serif="http://www.serif.com/" style="fill-rule:evenodd;clip-rule:evenodd;stroke-linejoin:round;stroke-miterlimit:2;">
    <g transform="matrix(1,0,0,1,-202.298,-69.6878)">
        <g transform="matrix(0.849333,0,0,1.12998,66.3489,-88.5828)">
            <g transform="matrix(1.2697,0,0,1.01363,-128.085,-45.4267)">
                <g>
                    <g transform="matrix(1.04783,0,0,0.986553,-5.041,9.5261)">
                        <g transform="matrix(136.5,0,0,118.3,363.702,804.618)">
                            <path d="M0.224,0L0.076,0L0.076,-0.698L0.346,-0.698L0.437,-0.683L0.504,-0.638L0.546,-0.568L0.56,-0.476L0.528,-0.349C0.507,-0.314 0.477,-0.29 0.437,-0.279L0.574,0L0.41,0L0.293,-0.259L0.224,-0.259L0.224,0ZM0.31,-0.375L0.384,-0.395L0.404,-0.461L0.404,-0.491L0.384,-0.557L0.31,-0.577L0.224,-0.577L0.224,-0.375L0.31,-0.375Z" style="fill:rgb(200,76,20);fill-rule:nonzero;"/>
                        </g>
                        <g transform="matrix(136.5,0,0,118.3,445.602,804.618)">
                            <path d="M0.08,0L0.08,-0.698L0.526,-0.698L0.526,-0.575L0.23,-0.575L0.23,-0.415L0.516,-0.415L0.516,-0.292L0.23,-0.292L0.23,-0.123L0.526,-0.123L0.526,0L0.08,0Z" style="fill:rgb(200,76,20);fill-rule:nonzero;"/>
                        </g>
                        <g transform="matrix(136.5,0,0,118.3,527.502,804.618)">
                            <path d="M0.591,0L0.42,0L0.348,-0.139L0.299,-0.249L0.29,-0.249L0.24,-0.139L0.166,0L0.009,0L0.205,-0.361L0.022,-0.698L0.193,-0.698L0.25,-0.587L0.301,-0.475L0.309,-0.475L0.361,-0.587L0.421,-0.698L0.578,-0.698L0.395,-0.359L0.591,0Z" style="fill:rgb(200,76,20);fill-rule:nonzero;"/>
                        </g>
                        <g transform="matrix(136.5,0,0,118.3,240.852,916.618)">
                            <path d="M0.224,0L0.076,0L0.076,-0.698L0.346,-0.698L0.437,-0.683L0.504,-0.638L0.546,-0.568L0.56,-0.476L0.528,-0.349C0.507,-0.314 0.477,-0.29 0.437,-0.279L0.574,0L0.41,0L0.293,-0.259L0.224,-0.259L0.224,0ZM0.31,-0.375L0.383,-0.395L0.404,-0.461L0.404,-0.491L0.383,-0.557L0.31,-0.577L0.224,-0.577L0.224,-0.375L0.31,-0.375Z" style="fill:rgb(200,76,20);fill-rule:nonzero;"/>
                        </g>
                        <g transform="matrix(136.5,0,0,118.3,322.752,916.618)">
                            <path d="M0.08,0L0.08,-0.698L0.526,-0.698L0.526,-0.575L0.23,-0.575L0.23,-0.415L0.516,-0.415L0.516,-0.292L0.23,-0.292L0.23,-0.123L0.526,-0.123L0.526,0L0.08,0Z" style="fill:rgb(200,76,20);fill-rule:nonzero;"/>
                        </g>
                        <g transform="matrix(136.5,0,0,118.3,404.652,916.618)">
                            <path d="M0.2,-0.464L0.189,-0.464L0.189,0L0.061,0L0.061,-0.698L0.241,-0.698L0.4,-0.234L0.411,-0.234L0.411,-0.698L0.539,-0.698L0.539,0L0.359,0L0.2,-0.464Z" style="fill:rgb(200,76,20);fill-rule:nonzero;"/>
                        </g>
                        <g transform="matrix(136.5,0,0,118.3,486.552,916.618)">
                            <path d="M0.064,-0.698L0.289,-0.698C0.37,-0.698 0.447,-0.676 0.498,-0.608C0.553,-0.536 0.566,-0.436 0.566,-0.349C0.566,-0.262 0.553,-0.162 0.498,-0.09C0.447,-0.022 0.37,0 0.289,0L0.064,0L0.064,-0.698ZM0.279,-0.118C0.317,-0.118 0.354,-0.128 0.377,-0.161L0.408,-0.286L0.408,-0.413L0.377,-0.537C0.354,-0.57 0.317,-0.58 0.279,-0.58L0.212,-0.58L0.212,-0.118L0.279,-0.118Z" style="fill:rgb(200,76,20);fill-rule:nonzero;"/>
                        </g>
                        <g transform="matrix(136.5,0,0,118.3,568.452,916.618)">
                            <path d="M0.08,0L0.08,-0.698L0.526,-0.698L0.526,-0.575L0.23,-0.575L0.23,-0.415L0.516,-0.415L0.516,-0.292L0.23,-0.292L0.23,-0.123L0.526,-0.123L0.526,0L0.08,0Z" style="fill:rgb(200,76,20);fill-rule:nonzero;"/>
                        </g>
                        <g transform="matrix(136.5,0,0,118.3,650.352,916.618)">
                            <path d="M0.224,-0L0.076,0L0.076,-0.698L0.346,-0.698L0.437,-0.683L0.504,-0.638L0.546,-0.568L0.56,-0.476L0.528,-0.349C0.507,-0.314 0.477,-0.29 0.437,-0.279L0.574,0L0.41,0L0.293,-0.259L0.224,-0.259L0.224,-0ZM0.31,-0.375L0.384,-0.395L0.404,-0.461L0.404,-0.491L0.384,-0.557L0.31,-0.577L0.224,-0.577L0.224,-0.375L0.31,-0.375Z" style="fill:rgb(200,76,20);fill-rule:nonzero;"/>
                        </g>
                    </g>
                </g>
            </g>
        </g>
        <g transform="matrix(1,0,0,1,-9.53944,-41.2385)">
            <path d="M498.01,113.99C511.26,120.12 519.77,130.7 527.33,142.79C537.46,141.13 547.56,141.05 557.77,140.59C572.82,139.11 587.6,140.36 602.6,141.49C624.04,143.51 644.99,147.92 664.96,156.1C686.78,165.63 705.92,180.95 719.45,200.57C733.47,222.09 740.78,248.73 744.06,273.99C745.57,284.12 744.86,293.82 745.03,304C745.08,310.76 745.28,317.25 743.84,323.9C741.4,334.73 738.44,345.25 733.05,355.03C722.23,375.15 704.73,392.52 683.6,401.57C667.23,408.59 648.61,411.72 630.96,413.34C634.02,421.8 637.17,430.4 640.26,438.85C642.07,443.69 646.67,442.75 650.88,443.4C667.43,444.1 684.79,449.7 697.58,460.44C709.54,471.01 717.23,485.84 717.01,502C716.53,511.35 711.97,521.46 702.43,524.47C696.11,526.41 691.48,523.18 686.19,520.34C683.29,527.24 681.75,533.77 675.96,538.97C672.9,541.77 667.99,544.95 663.71,543.31C658.26,541.33 653.44,536.65 649.01,533C647.7,538.58 646.24,544.1 644.47,549.56C643.34,553.72 641.65,557.21 643.31,561.46C647,572.43 645.83,582.62 646.07,594C646.2,602.14 644.13,609.98 644.17,618.12C659.12,621 671.66,631.14 678.15,644.83C682.1,653.12 682.63,664.22 676.79,671.79C673.07,676.92 667.22,679.5 660.99,679.88C649.08,680.52 637.06,679.36 625.12,680.38C616.41,681.28 607.81,679.98 599.06,680.37C583.95,679.55 570.77,681.27 556.09,676.91C550.16,675.18 545.06,671.56 541.4,666.6C534.96,657.62 534.01,645.81 533.74,635.13C527.04,634.87 520.34,634.82 513.64,635.26C518.03,642.19 523,647.75 525.05,655.97C527.49,664.73 525.56,674.41 518.18,680.17C512.99,684.07 504.62,683.92 498.4,684.54C487.16,685.73 476.23,683.21 464.99,684.12C456.97,684.85 449.06,685.22 441,685.02C424.94,684.7 408.77,685.9 393.2,683.66C388.9,682.99 384.44,681.88 381.16,678.84C378.26,676.22 376.83,672.78 375.94,669.05C373.13,657.14 374.77,645.39 372.75,633.31C363.96,632.6 355.12,631.91 346.39,630.6C329.73,628.31 313.2,621.35 298.32,613.7C283.85,606 269.59,596.68 258.21,584.79C245.94,573.07 236.27,558.75 228.03,543.99C221.36,530.46 216.54,515.89 213.99,501.01C209.36,476.93 212.37,452.08 221.36,429.37C223.28,424.89 225.66,420.36 230.35,418.3C235.05,416.06 240.91,418.07 244.45,421.55C248.18,425.19 250.11,431.03 252.22,435.73C256.83,446.68 263.36,456.92 270.96,466.04C279.2,476.22 291.28,483.29 304.11,485.82C311.07,487.2 318.22,486.38 324.01,482.02C332.14,475.87 338.27,466.41 344.06,458.11C353.71,444.11 357.42,427.88 362.84,411.87C370.05,387.77 371.28,361.03 372.92,336.02C372.67,323.57 374.1,311.33 374.94,298.95C375.34,294.01 372.5,290.98 369.3,287.71C359.76,278.53 351.29,268.21 343.45,257.56C338.47,251.06 337.3,242.16 340.72,234.69C343.73,228.82 350.25,225.6 355.96,222.93C367.54,217.52 381.43,216.53 393.91,213.33C393.36,205.02 391.14,197.04 390.27,188.77C389.09,179.26 387.59,168.07 390.82,158.85C392.79,153.14 396.98,147.36 403.33,146.35C410.85,145.11 419.28,147.15 426.78,148.24C435.79,149.55 444.08,152.77 452.86,155C457.96,143.44 461.43,132.07 468.2,121.19C470.84,117.17 474.16,113.33 478.93,111.9C485.44,109.9 491.97,111.17 498.01,113.99ZM648.3,462.18C648.47,466.31 649.61,470.54 650.36,474.6C652.39,485.02 652.38,495.9 653.1,506.06C653.3,511.31 657.83,516.16 661.44,519.6C662.99,521.12 665.21,521.69 666.71,519.76C670.25,515.14 669.55,508.96 668.57,503.59C667.82,498.64 667.2,493.05 671.38,489.39C674.61,486.99 679.86,487.54 682.8,490.21C686.97,493.86 687.53,500.97 691.79,504.24C694.28,506.28 696.77,503.02 698.2,501.2C701.77,495.9 698.74,489.89 696.07,484.95C690.87,475.64 682.19,470.17 672.45,466.47C664.93,463.61 656.38,461.42 648.3,462.18ZM393.18,232.15C383.07,232.4 373.25,235.04 364.03,239.09C361.2,240.61 356.9,242.83 358.18,246.77C360.18,253.24 367.36,258.17 371.45,263.52C373.46,265.54 376.37,270.18 379.53,269.84C382.34,264.56 383.55,258.48 385.93,252.97C388.65,245.88 392.52,239.94 393.18,232.15ZM627.5,588.31C623.84,591.44 620.94,595.18 617.67,598.68C599.87,616.5 576.86,627.07 552.27,631.66C551.63,639.4 551.99,646.99 554.85,654.29C555.97,657.06 558.02,659.08 560.85,660.07C565.88,661.82 571.71,661.99 576.99,662.05C598.99,661.99 621,661.94 643,662.06C648.3,662.01 654.52,662.38 659.53,660.46C661.22,659.75 661.83,658.74 662.05,656.95C662.75,651.41 659.43,646.08 655.78,642.21C650.55,636.76 643.21,634.49 635.99,633.09C633.02,632.41 629.35,631.96 626.85,630.14C624.61,628.16 624.9,624.84 625.32,622.17C627.62,611.86 631.28,598.53 627.5,588.31ZM550,158.96C531.41,158.97 513.33,163.28 495.63,168.66C478.98,174.36 462.82,183.04 449.1,194.08C430.94,209.54 415.81,228.14 406.09,250.04C400.34,263.43 396.5,277.67 394.04,292.03C388.68,330.77 391.09,372.48 381.56,410.44C377.13,428.73 370.56,446.76 361.16,463.1C354.03,475.91 346.11,488.26 334.55,497.53C327.84,502.8 319.5,505.26 311.01,505.14C295.85,505.43 281.14,500.08 269.36,490.62C261.79,484.28 254.49,478.27 249.15,469.83C244.05,462.01 239.59,453.78 234.59,445.89C230.71,459.69 228.88,474.11 230.5,488.41C233.39,514.63 242.73,539.9 259.62,560.36C273.98,577.66 291.97,590.95 311.98,601.05C331.15,610.26 352.64,614.96 373.89,615.03C374.13,607.38 373.61,599.48 374.77,591.91C375.29,588.89 376.01,585.57 378.76,583.77C382.88,581.5 388.47,583.49 389.93,588.06C391.95,594.57 390.58,602.2 391.21,608.99C392.07,618.36 391.9,627.75 392.66,637.12C393.21,645.58 391.17,655.4 394.56,663.54C396.11,667.32 401.64,666.92 404.98,667.11C428.65,666.82 452.34,667.16 476.02,666.94C485.82,666.2 495.47,665.8 505.3,665.95C505.76,661.96 506.34,658.38 504.35,654.66C500.66,647.19 492.3,642.26 484.81,639.29C482.28,638.06 478.53,637.12 478.06,633.84C477.33,629.41 480.94,624.7 483.02,621.02C488,612.72 490.92,602.66 493.43,593.37C494.4,590.37 495.44,586.93 498.62,585.59C503.24,583.67 508.88,585.98 509.77,591.16C511.18,599.48 507.58,609.12 505.3,617.1C513.26,618.46 520.87,618.47 528.79,616.81C539.13,614.68 549.3,614.25 559.36,611.33C566.73,609.19 573.83,607.28 580.71,603.74C598.92,594.76 613.95,578.63 621.92,559.97C626.8,547.55 630.71,534.99 632.92,521.81C637.47,505.14 634.24,488.42 631.16,471.82C627.13,454.55 621.46,437.58 615.02,421.07C613.62,418.37 612.86,413.98 609.04,414.1C588.81,412.2 569.68,412.45 550.07,406.09C534.94,402.21 520.77,396.04 508,387.01C503.16,383.58 496.57,378.88 495.17,372.79C493.88,365.67 503.17,360.26 509.01,364.05C513.44,367.23 517.08,371.33 521.8,374.19C533.59,381.59 546.51,387.45 560,390.94C576.75,394.69 593.84,396.34 611,396.04C626.27,396.34 641.72,394.98 656.63,391.63C668.24,388.42 679.89,383.73 689.78,376.77C696.2,371.73 702.36,367.28 706.43,360.05C699.37,361.43 692.58,363.61 685.41,364.46C678.01,365.36 670.65,366.58 663.24,367.46C653.58,368.72 643.92,366.88 634,366.8C616.96,365.46 598.42,362.71 582.97,355.06C572.1,349.71 561.99,343.23 553.65,334.34C550.3,330.86 546.09,326.47 547.11,321.18C548.13,315.66 554.72,313.49 559.44,315.62C561.45,316.75 563.19,318.56 564.81,320.19C573.66,329.81 584.92,337.51 597.33,341.73C609.99,347.03 624.8,348.44 638.39,349.63C646.39,350.4 654.03,349.36 661.99,349.02C678.94,347.75 697.64,345.13 712.58,336.55C716.68,334.05 721.37,331.26 724.28,327.36C726.79,322.85 727.05,316.84 727.66,311.78C729.34,288.82 725.9,265.31 719.77,243.19C713.27,222.1 701.15,201.13 683.92,187.05C673.07,178.76 660.65,171.18 647.35,167.67C627.24,162.25 605.88,158.5 585,158.97C573.33,159.05 561.67,158.99 550,158.96ZM350.37,504.29C355.79,503.31 362.89,505.7 364.41,511.56C365.87,517.51 365.91,525.42 360.42,529.42C354.73,534.03 345.95,531.76 341.52,526.53C339.29,523.04 338.68,518.24 339.25,514.2C340.26,508.62 345.03,505.22 350.37,504.29ZM541.37,232.38C548.53,230.8 556.2,233.49 560.64,239.36C567.63,247.61 568.21,263.23 561.99,272.01C556.16,281.5 541.19,281.89 533.66,274.35C525.25,266.45 523.8,252.77 528.57,242.6C531,237.2 535.61,233.64 541.37,232.38ZM673.36,269.3C675.84,268.62 678.51,268.55 680.2,270.8C684.43,276.28 685.23,284.99 680.32,290.32C677.59,293.33 673.09,292.06 670.8,289.21C667.63,285.04 667.29,278.77 668.88,273.92C669.59,271.64 671.06,270.01 673.36,269.3ZM379.38,463.37C390.55,461.74 400.97,472.2 398.47,483.4C396.35,494.5 381.07,499 372.42,492.57C369.27,490.32 364.88,486.33 364.79,482.2C366.02,474.6 371.04,464.86 379.38,463.37ZM512.11,429.87C516.6,435.34 515.8,445.1 520.78,450.21C525.16,454.5 532.25,456.45 537.64,459.39C545.17,463.41 553.67,468.16 559.11,474.87C567.74,484.94 570.13,497.68 569.52,510.61C568.89,518.5 567.52,525.84 561.31,531.32C557.46,535.03 553.02,535.27 548.11,536.48C545.35,536.91 544.16,539.71 542.7,541.74C539.93,546.28 536.93,550.46 532.43,553.44C526.17,557.53 518.82,560.6 511.4,557.59C499.27,552.72 493.13,542.82 487,531.96C484.65,527.44 480.12,528.13 475.77,527.22C461.83,525.79 448.88,517.58 440.46,506.56C433.86,497.75 430.02,486.34 427.25,475.79C426.14,471.19 424.55,465.9 425.19,461.16C425.86,456.4 432.54,454.04 436.65,455.3C440.25,456.3 441.41,461.51 442.4,464.62C445.71,476.77 448.15,492.23 458.18,500.83C466.22,508.3 476.06,509.84 486.62,510.34C490.13,510.74 495.32,510.15 497.87,513.07C503.86,519.62 505.85,530.57 512.33,536.72C515.74,539.94 520.36,537.85 523.66,535.64C528.19,532.53 528.89,526.05 527.79,521.07C526.54,515.03 524.11,508.98 527.02,503C529.4,498.14 535.93,496.16 540.22,499.79C543.48,502.95 545.1,508.03 547.16,512.04C548.71,511.89 550.26,511.74 551.81,511.58C552.45,506.08 552.51,500.69 550.55,495.41C548.35,489.05 543.72,484.48 538.41,480.58C529.85,474.33 520.19,471.84 511.85,465.13C505.58,460.19 501.43,452.36 499.12,444.85C497.89,440.61 497.09,434.87 500.3,431.29C503.11,428.37 508.96,426.4 512.11,429.87ZM414.75,164.34C412.17,164.26 409.74,165.02 408.33,167.32C406.54,170.25 406.93,174.6 407.16,177.9C408.12,186.71 409.66,195.48 411.48,204.15C418.54,200.19 423.04,194.24 428.71,188.71C434.18,183.21 440.69,178.99 446.07,173.38C436.43,168.74 425.51,164.79 414.75,164.34ZM490.78,131.29C487.09,130.55 483.21,130.33 480.77,133.73C476.45,140.2 474.16,148.26 474.01,156.02C485.3,152.99 495.83,148.12 507.5,146.3C504.75,138.62 498.51,133.49 490.78,131.29Z" style="fill:rgb(200,76,20);"/>
        </g>
    </g>
</svg>
